<svg xmlns="http://www.w3.org/2000/svg" xmlns:xlink="http://www.w3.org/1999/xlink" version="1.1" x="0" y="0" width="459.23" height="106.667" viewBox="0, 0, 459.23, 106.667">
  <g id="Layer_1" transform="translate(-71.667, -590.887)">
    <g>
      <path d="M229.107,697.364 Q226.263,697.364 224.746,695.8 Q223.229,694.235 223.229,691.297 L223.229,655.462 Q223.229,652.523 224.746,651.007 Q226.263,649.49 229.012,649.49 Q231.761,649.49 233.278,651.007 Q234.795,652.523 234.795,655.462 L234.795,662.383 L233.752,659.539 Q235.648,654.799 239.63,652.049 Q243.611,649.3 249.11,649.3 Q254.703,649.3 258.305,651.955 Q261.908,654.609 263.33,660.107 L262.002,660.107 Q263.898,655.083 268.259,652.192 Q272.62,649.3 278.308,649.3 Q283.617,649.3 287.077,651.386 Q290.537,653.471 292.244,657.69 Q293.95,661.909 293.95,668.355 L293.95,691.297 Q293.95,694.235 292.386,695.8 Q290.822,697.364 287.978,697.364 Q285.134,697.364 283.617,695.8 Q282.1,694.235 282.1,691.297 L282.1,668.829 Q282.1,663.52 280.346,661.055 Q278.592,658.591 274.421,658.591 Q269.776,658.591 267.122,661.861 Q264.467,665.132 264.467,670.915 L264.467,691.297 Q264.467,694.235 262.95,695.8 Q261.434,697.364 258.59,697.364 Q255.746,697.364 254.181,695.8 Q252.617,694.235 252.617,691.297 L252.617,668.829 Q252.617,663.52 250.863,661.055 Q249.11,658.591 245.033,658.591 Q240.388,658.591 237.734,661.861 Q235.079,665.132 235.079,670.915 L235.079,691.297 Q235.079,697.364 229.107,697.364 z" fill="#000000"/>
      <path d="M319.009,697.553 Q313.226,697.553 309.434,695.42 Q305.642,693.287 303.793,689.021 Q301.945,684.755 301.945,678.404 L301.945,655.462 Q301.945,652.429 303.462,650.959 Q304.978,649.49 307.822,649.49 Q310.666,649.49 312.231,650.959 Q313.795,652.429 313.795,655.462 L313.795,678.593 Q313.795,683.523 315.786,685.893 Q317.776,688.263 322.137,688.263 Q326.877,688.263 329.911,684.992 Q332.944,681.722 332.944,676.318 L332.944,655.462 Q332.944,652.429 334.461,650.959 Q335.978,649.49 338.822,649.49 Q341.666,649.49 343.23,650.959 Q344.794,652.429 344.794,655.462 L344.794,691.297 Q344.794,697.364 339.011,697.364 Q336.262,697.364 334.745,695.799 Q333.229,694.235 333.229,691.297 L333.229,684.092 L334.556,686.936 Q332.565,692.055 328.536,694.804 Q324.507,697.553 319.009,697.553 z" fill="#000000"/>
      <path d="M371.454,697.553 Q367.378,697.553 362.827,696.7 Q358.277,695.847 354.674,693.761 Q353.158,692.813 352.542,691.534 Q351.925,690.254 352.068,688.974 Q352.21,687.694 353.016,686.746 Q353.821,685.798 355.101,685.514 Q356.381,685.229 357.898,685.988 Q361.69,687.789 365.008,688.5 Q368.326,689.211 371.549,689.211 Q376.099,689.211 378.327,687.647 Q380.555,686.083 380.555,683.523 Q380.555,681.343 379.085,680.158 Q377.616,678.973 374.677,678.404 L365.197,676.603 Q359.32,675.465 356.239,672.289 Q353.158,669.113 353.158,664.089 Q353.158,659.539 355.67,656.221 Q358.182,652.903 362.638,651.101 Q367.093,649.3 372.876,649.3 Q377.047,649.3 380.697,650.201 Q384.347,651.101 387.76,652.997 Q389.182,653.756 389.703,654.988 Q390.224,656.221 389.94,657.5 Q389.656,658.78 388.802,659.776 Q387.949,660.771 386.669,661.008 Q385.39,661.245 383.778,660.487 Q380.839,658.97 378.137,658.306 Q375.436,657.643 372.971,657.643 Q368.326,657.643 366.098,659.254 Q363.87,660.866 363.87,663.52 Q363.87,665.511 365.197,666.838 Q366.524,668.165 369.274,668.639 L378.754,670.441 Q384.916,671.578 388.091,674.612 Q391.267,677.645 391.267,682.765 Q391.267,689.685 385.864,693.619 Q380.46,697.553 371.454,697.553 z" fill="#000000"/>
      <path d="M403.991,697.269 Q401.147,697.269 399.631,695.562 Q398.114,693.856 398.114,690.823 L398.114,656.031 Q398.114,652.903 399.631,651.244 Q401.147,649.585 403.991,649.585 Q406.835,649.585 408.4,651.244 Q409.964,652.903 409.964,656.031 L409.964,690.823 Q409.964,693.856 408.447,695.562 Q406.93,697.269 403.991,697.269 z M403.991,640.768 Q400.673,640.768 398.825,639.109 Q396.976,637.45 396.976,634.511 Q396.976,631.478 398.825,629.866 Q400.673,628.255 403.991,628.255 Q407.404,628.255 409.205,629.866 Q411.007,631.478 411.007,634.511 Q411.007,637.45 409.205,639.109 Q407.404,640.768 403.991,640.768 z" fill="#000000"/>
      <path d="M441.079,697.553 Q433.78,697.553 428.376,694.567 Q422.972,691.581 420.034,686.083 Q417.095,680.584 417.095,673.19 Q417.095,667.597 418.754,663.188 Q420.413,658.78 423.541,655.699 Q426.67,652.618 431.125,650.959 Q435.581,649.3 441.079,649.3 Q444.208,649.3 447.857,650.153 Q451.507,651.007 454.73,652.997 Q456.247,653.945 456.721,655.273 Q457.195,656.6 456.911,657.974 Q456.626,659.349 455.726,660.344 Q454.825,661.34 453.498,661.577 Q452.171,661.814 450.559,660.961 Q448.474,659.728 446.293,659.112 Q444.113,658.496 442.122,658.496 Q438.994,658.496 436.624,659.491 Q434.254,660.487 432.595,662.335 Q430.936,664.184 430.082,666.933 Q429.229,669.682 429.229,673.285 Q429.229,680.3 432.595,684.329 Q435.96,688.358 442.122,688.358 Q444.113,688.358 446.246,687.789 Q448.379,687.22 450.559,685.988 Q452.171,685.135 453.451,685.419 Q454.73,685.703 455.584,686.699 Q456.437,687.694 456.626,689.069 Q456.816,690.443 456.295,691.771 Q455.773,693.098 454.351,693.951 Q451.223,695.847 447.715,696.7 Q444.208,697.553 441.079,697.553 z" fill="#000000"/>
      <path d="M477.598,697.553 Q469.73,697.553 465.748,693.05 Q461.767,688.547 461.767,679.826 L461.767,634.985 Q461.767,632.047 463.284,630.53 Q464.8,629.013 467.644,629.013 Q470.488,629.013 472.052,630.53 Q473.617,632.047 473.617,634.985 L473.617,679.257 Q473.617,683.618 475.465,685.703 Q477.314,687.789 480.727,687.789 Q481.485,687.789 482.149,687.742 Q482.812,687.694 483.476,687.599 Q484.803,687.41 485.277,688.31 Q485.751,689.211 485.751,691.96 Q485.751,694.33 484.803,695.657 Q483.855,696.984 481.675,697.269 Q480.727,697.364 479.684,697.458 Q478.641,697.553 477.598,697.553 z" fill="#000000"/>
      <path d="M511.747,697.553 Q503.879,697.553 498.191,694.615 Q492.503,691.676 489.422,686.272 Q486.341,680.869 486.341,673.474 Q486.341,666.269 489.327,660.866 Q492.313,655.462 497.575,652.381 Q502.836,649.3 509.567,649.3 Q514.496,649.3 518.431,650.912 Q522.365,652.523 525.161,655.557 Q527.958,658.591 529.427,662.904 Q530.897,667.217 530.897,672.621 Q530.897,674.327 529.712,675.228 Q528.527,676.129 526.346,676.129 L495.916,676.129 L495.916,669.303 L522.554,669.303 L521.038,670.725 Q521.038,666.364 519.758,663.425 Q518.478,660.487 516.061,658.922 Q513.643,657.358 510.041,657.358 Q506.059,657.358 503.263,659.207 Q500.466,661.055 498.997,664.421 Q497.527,667.786 497.527,672.431 L497.527,673.095 Q497.527,680.869 501.177,684.708 Q504.827,688.547 511.937,688.547 Q514.402,688.547 517.483,687.931 Q520.564,687.315 523.313,685.798 Q525.304,684.661 526.82,684.803 Q528.337,684.945 529.238,685.893 Q530.138,686.841 530.328,688.216 Q530.518,689.59 529.807,691.012 Q529.096,692.434 527.389,693.477 Q524.071,695.563 519.758,696.558 Q515.444,697.553 511.747,697.553 z" fill="#000000"/>
    </g>
    <path d="M181,590.887 L187,590.887 C195.284,590.887 202,597.602 202,605.887 L202,682.553 C202,690.838 195.284,697.553 187,697.553 L181,697.553 C172.716,697.553 166,690.838 166,682.553 L166,605.887 C166,597.602 172.716,590.887 181,590.887 z" fill="#F0EEE2"/>
    <path d="M86.667,590.887 L92.667,590.887 C100.951,590.887 107.667,597.602 107.667,605.887 L107.667,682.553 C107.667,690.838 100.951,697.553 92.667,697.553 L86.667,697.553 C78.382,697.553 71.667,690.838 71.667,682.553 L71.667,605.887 C71.667,597.602 78.382,590.887 86.667,590.887 z" fill="#CFA2A0"/>
    <path d="M133.833,590.887 L139.833,590.887 C148.118,590.887 154.833,597.602 154.833,605.887 L154.833,682.553 C154.833,690.838 148.118,697.553 139.833,697.553 L133.833,697.553 C125.549,697.553 118.833,690.838 118.833,682.553 L118.833,605.887 C118.833,597.602 125.549,590.887 133.833,590.887 z" fill="#B8DDD6"/>
  </g>
</svg>